<svg width="80" height="80" viewBox="0 0 80 80" fill="none" xmlns="http://www.w3.org/2000/svg">
<g clip-path="url(#clip0_3304_138665)">
<rect width="80" height="80" rx="40" fill="white"/>
<g clip-path="url(#clip1_3304_138665)">
<path d="M80 40C80 17.9086 62.0914 0 40 0C17.9086 0 0 17.9086 0 40C0 62.0914 17.9086 80 40 80C62.0914 80 80 62.0914 80 40Z" fill="#627EEA"/>
<path d="M40.6411 15V33.4658L56.28 40.44L40.6411 15Z" fill="white" fill-opacity="0.602"/>
<path d="M40.6411 15L25 40.44L40.6411 33.4658V15Z" fill="white"/>
<path d="M40.6411 52.4064V64.9536L56.2904 43.3462L40.6411 52.4064Z" fill="white" fill-opacity="0.602"/>
<path d="M40.6411 64.9536V52.4042L25 43.3462L40.6411 64.9536Z" fill="white"/>
<path d="M40.6411 49.5022L56.28 40.44L40.6411 33.47V49.5022Z" fill="white" fill-opacity="0.2"/>
<path d="M25 40.44L40.6411 49.5022V33.47L25 40.44Z" fill="white" fill-opacity="0.602"/>
</g>
</g>
<defs>
<clipPath id="clip0_3304_138665">
<rect width="80" height="80" rx="40" fill="white"/>
</clipPath>
<clipPath id="clip1_3304_138665">
<rect width="80" height="80" fill="white"/>
</clipPath>
</defs>
</svg>
