<svg width="16" height="16" viewBox="0 0 16 16" fill="none" xmlns="http://www.w3.org/2000/svg">
<path d="M8 8.23309e-09C9.125 9.39086e-09 10.125 0.65625 10.625 1.625C11.6562 1.28125 12.8125 1.53125 13.6562 2.34375C14.4687 3.15625 14.6875 4.34375 14.375 5.375C15.3437 5.875 16 6.875 16 8C16 9.15625 15.3437 10.1563 14.375 10.6563C14.7187 11.6875 14.4687 12.8438 13.6562 13.6563C12.8125 14.4688 11.6562 14.7188 10.625 14.4063C10.125 15.375 9.125 16 8 16C6.84375 16 5.84375 15.375 5.34375 14.4063C4.3125 14.7188 3.15625 14.4688 2.3125 13.6563C1.5 12.8438 1.28125 11.6875 1.59375 10.6563C0.625 10.1563 -2.34736e-08 9.15625 -2.12409e-08 8C-1.90685e-08 6.875 0.625 5.875 1.59375 5.375C1.25 4.34375 1.5 3.15625 2.3125 2.34375C3.15625 1.53125 4.3125 1.28125 5.34375 1.625C5.84375 0.65625 6.84375 7.04315e-09 8 8.23309e-09ZM11 7.03125C11.3125 6.75 11.3125 6.28125 11 5.96875C10.7187 5.6875 10.25 5.6875 9.96875 5.96875L7 8.96875L5.75 7.71875C5.46875 7.4375 5 7.4375 4.71875 7.71875C4.40625 8.03125 4.40625 8.5 4.71875 8.78125L6.46875 10.5313C6.75 10.8438 7.21875 10.8438 7.5 10.5313L11 7.03125Z" fill="#33D285"/>
</svg>
