<svg width="207" height="54" viewBox="0 0 207 54" fill="none" xmlns="http://www.w3.org/2000/svg">
<path d="M0.815918 0.629791L15.0159 53.2221H30.7936L38.0062 21.8921L45.5194 53.2221H61.2971L75.4971 0.629791H61.5977L52.9575 35.9418L44.3173 0.629791H32.2962L23.4306 35.9418L15.091 0.479529L0.815918 0.629791Z" fill="url(#paint0_linear_2924_121700)"/>
<path d="M0.815918 0.629791L15.0159 53.2221H30.7936L38.0062 21.8921L45.5194 53.2221H61.2971L75.4971 0.629791H61.5977L52.9575 35.9418L44.3173 0.629791H32.2962L23.4306 35.9418L15.091 0.479529L0.815918 0.629791Z" fill="url(#paint1_radial_2924_121700)"/>
<path d="M0.815918 0.629791L15.0159 53.2221H30.7936L38.0062 21.8921L45.5194 53.2221H61.2971L75.4971 0.629791H61.5977L52.9575 35.9418L44.3173 0.629791H32.2962L23.4306 35.9418L15.091 0.479529L0.815918 0.629791Z" fill="url(#paint2_radial_2924_121700)"/>
<path d="M0.815918 0.629791L15.0159 53.2221H30.7936L38.0062 21.8921L45.5194 53.2221H61.2971L75.4971 0.629791H61.5977L52.9575 35.9418L44.3173 0.629791H32.2962L23.4306 35.9418L15.091 0.479529L0.815918 0.629791Z" fill="url(#paint3_radial_2924_121700)"/>
<path d="M0.815918 0.629791L15.0159 53.2221H30.7936L38.0062 21.8921L45.5194 53.2221H61.2971L75.4971 0.629791H61.5977L52.9575 35.9418L44.3173 0.629791H32.2962L23.4306 35.9418L15.091 0.479529L0.815918 0.629791Z" fill="url(#paint4_linear_2924_121700)" fill-opacity="0.4"/>
<path d="M0.815918 0.629791L15.0159 53.2221H30.7936L38.0062 21.8921L45.5194 53.2221H61.2971L75.4971 0.629791H61.5977L52.9575 35.9418L44.3173 0.629791H32.2962L23.4306 35.9418L15.091 0.479529L0.815918 0.629791Z" fill="white" fill-opacity="0.6"/>
<path d="M75.905 23.3948C74.2521 26.4 73.4257 29.9312 73.4257 33.9884C73.4257 38.0455 74.2521 41.5016 75.9801 44.4317C77.7082 47.437 80.2626 49.6909 83.5685 51.2687C86.8743 52.9216 90.7811 53.6729 95.3642 53.6729C98.8202 53.6729 101.901 53.0719 104.605 51.8698C107.31 50.6677 109.414 49.0148 110.992 46.9111C112.569 44.8074 113.546 42.5534 113.922 39.9989H101.149C100.398 42.8539 98.1441 44.2814 94.4626 44.2814C90.1049 44.2814 87.5505 41.8772 86.9494 37.0688V36.9185H113.997C114.222 35.7164 114.373 34.364 114.373 32.7111C114.373 29.0297 113.471 25.799 111.743 22.944C109.94 20.089 107.536 17.9101 104.38 16.3324C101.224 14.8297 97.6181 14.0033 93.561 14.0033C89.5039 14.0033 85.9727 14.8297 82.9674 16.4826C79.9621 18.1355 77.5579 20.3895 75.905 23.3948ZM101.525 28.9545H87.0997C87.4002 27.1514 88.1515 25.7239 89.3536 24.7471C90.5557 23.7704 92.2086 23.2445 94.2372 23.2445C96.1906 23.2445 97.7684 23.7704 99.0456 24.7471C100.323 25.7239 101.149 27.1514 101.525 28.9545Z" fill="url(#paint5_linear_2924_121700)"/>
<path d="M75.905 23.3948C74.2521 26.4 73.4257 29.9312 73.4257 33.9884C73.4257 38.0455 74.2521 41.5016 75.9801 44.4317C77.7082 47.437 80.2626 49.6909 83.5685 51.2687C86.8743 52.9216 90.7811 53.6729 95.3642 53.6729C98.8202 53.6729 101.901 53.0719 104.605 51.8698C107.31 50.6677 109.414 49.0148 110.992 46.9111C112.569 44.8074 113.546 42.5534 113.922 39.9989H101.149C100.398 42.8539 98.1441 44.2814 94.4626 44.2814C90.1049 44.2814 87.5505 41.8772 86.9494 37.0688V36.9185H113.997C114.222 35.7164 114.373 34.364 114.373 32.7111C114.373 29.0297 113.471 25.799 111.743 22.944C109.94 20.089 107.536 17.9101 104.38 16.3324C101.224 14.8297 97.6181 14.0033 93.561 14.0033C89.5039 14.0033 85.9727 14.8297 82.9674 16.4826C79.9621 18.1355 77.5579 20.3895 75.905 23.3948ZM101.525 28.9545H87.0997C87.4002 27.1514 88.1515 25.7239 89.3536 24.7471C90.5557 23.7704 92.2086 23.2445 94.2372 23.2445C96.1906 23.2445 97.7684 23.7704 99.0456 24.7471C100.323 25.7239 101.149 27.1514 101.525 28.9545Z" fill="url(#paint6_radial_2924_121700)"/>
<path d="M75.905 23.3948C74.2521 26.4 73.4257 29.9312 73.4257 33.9884C73.4257 38.0455 74.2521 41.5016 75.9801 44.4317C77.7082 47.437 80.2626 49.6909 83.5685 51.2687C86.8743 52.9216 90.7811 53.6729 95.3642 53.6729C98.8202 53.6729 101.901 53.0719 104.605 51.8698C107.31 50.6677 109.414 49.0148 110.992 46.9111C112.569 44.8074 113.546 42.5534 113.922 39.9989H101.149C100.398 42.8539 98.1441 44.2814 94.4626 44.2814C90.1049 44.2814 87.5505 41.8772 86.9494 37.0688V36.9185H113.997C114.222 35.7164 114.373 34.364 114.373 32.7111C114.373 29.0297 113.471 25.799 111.743 22.944C109.94 20.089 107.536 17.9101 104.38 16.3324C101.224 14.8297 97.6181 14.0033 93.561 14.0033C89.5039 14.0033 85.9727 14.8297 82.9674 16.4826C79.9621 18.1355 77.5579 20.3895 75.905 23.3948ZM101.525 28.9545H87.0997C87.4002 27.1514 88.1515 25.7239 89.3536 24.7471C90.5557 23.7704 92.2086 23.2445 94.2372 23.2445C96.1906 23.2445 97.7684 23.7704 99.0456 24.7471C100.323 25.7239 101.149 27.1514 101.525 28.9545Z" fill="url(#paint7_radial_2924_121700)"/>
<path d="M75.905 23.3948C74.2521 26.4 73.4257 29.9312 73.4257 33.9884C73.4257 38.0455 74.2521 41.5016 75.9801 44.4317C77.7082 47.437 80.2626 49.6909 83.5685 51.2687C86.8743 52.9216 90.7811 53.6729 95.3642 53.6729C98.8202 53.6729 101.901 53.0719 104.605 51.8698C107.31 50.6677 109.414 49.0148 110.992 46.9111C112.569 44.8074 113.546 42.5534 113.922 39.9989H101.149C100.398 42.8539 98.1441 44.2814 94.4626 44.2814C90.1049 44.2814 87.5505 41.8772 86.9494 37.0688V36.9185H113.997C114.222 35.7164 114.373 34.364 114.373 32.7111C114.373 29.0297 113.471 25.799 111.743 22.944C109.94 20.089 107.536 17.9101 104.38 16.3324C101.224 14.8297 97.6181 14.0033 93.561 14.0033C89.5039 14.0033 85.9727 14.8297 82.9674 16.4826C79.9621 18.1355 77.5579 20.3895 75.905 23.3948ZM101.525 28.9545H87.0997C87.4002 27.1514 88.1515 25.7239 89.3536 24.7471C90.5557 23.7704 92.2086 23.2445 94.2372 23.2445C96.1906 23.2445 97.7684 23.7704 99.0456 24.7471C100.323 25.7239 101.149 27.1514 101.525 28.9545Z" fill="url(#paint8_radial_2924_121700)"/>
<path d="M75.905 23.3948C74.2521 26.4 73.4257 29.9312 73.4257 33.9884C73.4257 38.0455 74.2521 41.5016 75.9801 44.4317C77.7082 47.437 80.2626 49.6909 83.5685 51.2687C86.8743 52.9216 90.7811 53.6729 95.3642 53.6729C98.8202 53.6729 101.901 53.0719 104.605 51.8698C107.31 50.6677 109.414 49.0148 110.992 46.9111C112.569 44.8074 113.546 42.5534 113.922 39.9989H101.149C100.398 42.8539 98.1441 44.2814 94.4626 44.2814C90.1049 44.2814 87.5505 41.8772 86.9494 37.0688V36.9185H113.997C114.222 35.7164 114.373 34.364 114.373 32.7111C114.373 29.0297 113.471 25.799 111.743 22.944C109.94 20.089 107.536 17.9101 104.38 16.3324C101.224 14.8297 97.6181 14.0033 93.561 14.0033C89.5039 14.0033 85.9727 14.8297 82.9674 16.4826C79.9621 18.1355 77.5579 20.3895 75.905 23.3948ZM101.525 28.9545H87.0997C87.4002 27.1514 88.1515 25.7239 89.3536 24.7471C90.5557 23.7704 92.2086 23.2445 94.2372 23.2445C96.1906 23.2445 97.7684 23.7704 99.0456 24.7471C100.323 25.7239 101.149 27.1514 101.525 28.9545Z" fill="url(#paint9_linear_2924_121700)" fill-opacity="0.4"/>
<path d="M75.905 23.3948C74.2521 26.4 73.4257 29.9312 73.4257 33.9884C73.4257 38.0455 74.2521 41.5016 75.9801 44.4317C77.7082 47.437 80.2626 49.6909 83.5685 51.2687C86.8743 52.9216 90.7811 53.6729 95.3642 53.6729C98.8202 53.6729 101.901 53.0719 104.605 51.8698C107.31 50.6677 109.414 49.0148 110.992 46.9111C112.569 44.8074 113.546 42.5534 113.922 39.9989H101.149C100.398 42.8539 98.1441 44.2814 94.4626 44.2814C90.1049 44.2814 87.5505 41.8772 86.9494 37.0688V36.9185H113.997C114.222 35.7164 114.373 34.364 114.373 32.7111C114.373 29.0297 113.471 25.799 111.743 22.944C109.94 20.089 107.536 17.9101 104.38 16.3324C101.224 14.8297 97.6181 14.0033 93.561 14.0033C89.5039 14.0033 85.9727 14.8297 82.9674 16.4826C79.9621 18.1355 77.5579 20.3895 75.905 23.3948ZM101.525 28.9545H87.0997C87.4002 27.1514 88.1515 25.7239 89.3536 24.7471C90.5557 23.7704 92.2086 23.2445 94.2372 23.2445C96.1906 23.2445 97.7684 23.7704 99.0456 24.7471C100.323 25.7239 101.149 27.1514 101.525 28.9545Z" fill="white" fill-opacity="0.6"/>
<path d="M152.447 16.4075C149.743 14.8297 146.737 14.0033 143.432 14.0033C138.924 14.0033 135.242 15.581 132.537 18.7366V0.629791H119.54V53.2221H130.96L132.087 48.1883C134.867 51.8698 138.623 53.6729 143.432 53.6729C146.813 53.6729 149.818 52.8465 152.523 51.1936C155.152 49.5407 157.256 47.2116 158.759 44.2063C160.261 41.201 161.012 37.6698 161.012 33.763C161.012 29.8561 160.261 26.3249 158.759 23.3196C157.256 20.3144 155.152 18.0604 152.447 16.4075ZM145.686 40.7502C144.258 42.5534 142.38 43.3799 140.051 43.3799C137.646 43.3799 135.768 42.5534 134.416 40.7502C133.063 39.0222 132.387 36.6931 132.387 33.8381C132.387 30.9831 133.063 28.7291 134.416 26.926C135.768 25.1979 137.646 24.2964 140.051 24.2964C142.38 24.2964 144.258 25.1979 145.686 26.926C147.038 28.7291 147.789 30.9831 147.789 33.8381C147.789 36.6931 147.038 39.0222 145.686 40.7502Z" fill="url(#paint10_linear_2924_121700)"/>
<path d="M152.447 16.4075C149.743 14.8297 146.737 14.0033 143.432 14.0033C138.924 14.0033 135.242 15.581 132.537 18.7366V0.629791H119.54V53.2221H130.96L132.087 48.1883C134.867 51.8698 138.623 53.6729 143.432 53.6729C146.813 53.6729 149.818 52.8465 152.523 51.1936C155.152 49.5407 157.256 47.2116 158.759 44.2063C160.261 41.201 161.012 37.6698 161.012 33.763C161.012 29.8561 160.261 26.3249 158.759 23.3196C157.256 20.3144 155.152 18.0604 152.447 16.4075ZM145.686 40.7502C144.258 42.5534 142.38 43.3799 140.051 43.3799C137.646 43.3799 135.768 42.5534 134.416 40.7502C133.063 39.0222 132.387 36.6931 132.387 33.8381C132.387 30.9831 133.063 28.7291 134.416 26.926C135.768 25.1979 137.646 24.2964 140.051 24.2964C142.38 24.2964 144.258 25.1979 145.686 26.926C147.038 28.7291 147.789 30.9831 147.789 33.8381C147.789 36.6931 147.038 39.0222 145.686 40.7502Z" fill="url(#paint11_radial_2924_121700)"/>
<path d="M152.447 16.4075C149.743 14.8297 146.737 14.0033 143.432 14.0033C138.924 14.0033 135.242 15.581 132.537 18.7366V0.629791H119.54V53.2221H130.96L132.087 48.1883C134.867 51.8698 138.623 53.6729 143.432 53.6729C146.813 53.6729 149.818 52.8465 152.523 51.1936C155.152 49.5407 157.256 47.2116 158.759 44.2063C160.261 41.201 161.012 37.6698 161.012 33.763C161.012 29.8561 160.261 26.3249 158.759 23.3196C157.256 20.3144 155.152 18.0604 152.447 16.4075ZM145.686 40.7502C144.258 42.5534 142.38 43.3799 140.051 43.3799C137.646 43.3799 135.768 42.5534 134.416 40.7502C133.063 39.0222 132.387 36.6931 132.387 33.8381C132.387 30.9831 133.063 28.7291 134.416 26.926C135.768 25.1979 137.646 24.2964 140.051 24.2964C142.38 24.2964 144.258 25.1979 145.686 26.926C147.038 28.7291 147.789 30.9831 147.789 33.8381C147.789 36.6931 147.038 39.0222 145.686 40.7502Z" fill="url(#paint12_radial_2924_121700)"/>
<path d="M152.447 16.4075C149.743 14.8297 146.737 14.0033 143.432 14.0033C138.924 14.0033 135.242 15.581 132.537 18.7366V0.629791H119.54V53.2221H130.96L132.087 48.1883C134.867 51.8698 138.623 53.6729 143.432 53.6729C146.813 53.6729 149.818 52.8465 152.523 51.1936C155.152 49.5407 157.256 47.2116 158.759 44.2063C160.261 41.201 161.012 37.6698 161.012 33.763C161.012 29.8561 160.261 26.3249 158.759 23.3196C157.256 20.3144 155.152 18.0604 152.447 16.4075ZM145.686 40.7502C144.258 42.5534 142.38 43.3799 140.051 43.3799C137.646 43.3799 135.768 42.5534 134.416 40.7502C133.063 39.0222 132.387 36.6931 132.387 33.8381C132.387 30.9831 133.063 28.7291 134.416 26.926C135.768 25.1979 137.646 24.2964 140.051 24.2964C142.38 24.2964 144.258 25.1979 145.686 26.926C147.038 28.7291 147.789 30.9831 147.789 33.8381C147.789 36.6931 147.038 39.0222 145.686 40.7502Z" fill="url(#paint13_radial_2924_121700)"/>
<path d="M152.447 16.4075C149.743 14.8297 146.737 14.0033 143.432 14.0033C138.924 14.0033 135.242 15.581 132.537 18.7366V0.629791H119.54V53.2221H130.96L132.087 48.1883C134.867 51.8698 138.623 53.6729 143.432 53.6729C146.813 53.6729 149.818 52.8465 152.523 51.1936C155.152 49.5407 157.256 47.2116 158.759 44.2063C160.261 41.201 161.012 37.6698 161.012 33.763C161.012 29.8561 160.261 26.3249 158.759 23.3196C157.256 20.3144 155.152 18.0604 152.447 16.4075ZM145.686 40.7502C144.258 42.5534 142.38 43.3799 140.051 43.3799C137.646 43.3799 135.768 42.5534 134.416 40.7502C133.063 39.0222 132.387 36.6931 132.387 33.8381C132.387 30.9831 133.063 28.7291 134.416 26.926C135.768 25.1979 137.646 24.2964 140.051 24.2964C142.38 24.2964 144.258 25.1979 145.686 26.926C147.038 28.7291 147.789 30.9831 147.789 33.8381C147.789 36.6931 147.038 39.0222 145.686 40.7502Z" fill="url(#paint14_linear_2924_121700)" fill-opacity="0.4"/>
<path d="M152.447 16.4075C149.743 14.8297 146.737 14.0033 143.432 14.0033C138.924 14.0033 135.242 15.581 132.537 18.7366V0.629791H119.54V53.2221H130.96L132.087 48.1883C134.867 51.8698 138.623 53.6729 143.432 53.6729C146.813 53.6729 149.818 52.8465 152.523 51.1936C155.152 49.5407 157.256 47.2116 158.759 44.2063C160.261 41.201 161.012 37.6698 161.012 33.763C161.012 29.8561 160.261 26.3249 158.759 23.3196C157.256 20.3144 155.152 18.0604 152.447 16.4075ZM145.686 40.7502C144.258 42.5534 142.38 43.3799 140.051 43.3799C137.646 43.3799 135.768 42.5534 134.416 40.7502C133.063 39.0222 132.387 36.6931 132.387 33.8381C132.387 30.9831 133.063 28.7291 134.416 26.926C135.768 25.1979 137.646 24.2964 140.051 24.2964C142.38 24.2964 144.258 25.1979 145.686 26.926C147.038 28.7291 147.789 30.9831 147.789 33.8381C147.789 36.6931 147.038 39.0222 145.686 40.7502Z" fill="white" fill-opacity="0.6"/>
<path d="M207 38.4963C207 31.8847 203.093 27.6773 195.28 25.7239C198.435 24.9725 200.915 23.6202 202.868 21.7419C204.821 19.8636 205.798 17.3842 205.798 14.3038C205.798 9.94615 203.995 6.56521 200.539 4.01073C197.083 1.45624 192.124 0.179001 185.813 0.179001C179.802 0.179001 174.994 1.68164 171.463 4.68692C167.857 7.6922 166.053 11.8245 166.053 17.0086H178.901C178.976 14.9049 179.727 13.252 181.08 12.0498C182.432 10.8477 184.235 10.2467 186.339 10.2467C188.142 10.2467 189.645 10.6975 190.772 11.5991C191.899 12.5006 192.5 13.853 192.5 15.581C192.5 17.3842 191.824 18.8117 190.546 19.8636C189.194 20.9154 187.391 21.4413 184.987 21.4413H180.103V31.8095H185.738C188.292 31.8095 190.171 32.3355 191.523 33.3122C192.875 34.2889 193.552 35.6413 193.552 37.3693C193.552 39.3227 192.875 40.9005 191.523 41.9524C190.171 43.0793 188.518 43.6053 186.564 43.6053C184.01 43.6053 181.906 42.8539 180.328 41.3513C178.676 39.8487 177.849 37.745 177.849 35.0402H164.701C164.701 40.9005 166.579 45.4084 170.336 48.7142C174.092 52.02 179.277 53.6729 185.813 53.6729C190.096 53.6729 193.852 53.0719 197.008 51.7946C200.163 50.5925 202.643 48.7894 204.371 46.5354C206.099 44.2814 207 41.5767 207 38.4963Z" fill="url(#paint15_linear_2924_121700)"/>
<path d="M207 38.4963C207 31.8847 203.093 27.6773 195.28 25.7239C198.435 24.9725 200.915 23.6202 202.868 21.7419C204.821 19.8636 205.798 17.3842 205.798 14.3038C205.798 9.94615 203.995 6.56521 200.539 4.01073C197.083 1.45624 192.124 0.179001 185.813 0.179001C179.802 0.179001 174.994 1.68164 171.463 4.68692C167.857 7.6922 166.053 11.8245 166.053 17.0086H178.901C178.976 14.9049 179.727 13.252 181.08 12.0498C182.432 10.8477 184.235 10.2467 186.339 10.2467C188.142 10.2467 189.645 10.6975 190.772 11.5991C191.899 12.5006 192.5 13.853 192.5 15.581C192.5 17.3842 191.824 18.8117 190.546 19.8636C189.194 20.9154 187.391 21.4413 184.987 21.4413H180.103V31.8095H185.738C188.292 31.8095 190.171 32.3355 191.523 33.3122C192.875 34.2889 193.552 35.6413 193.552 37.3693C193.552 39.3227 192.875 40.9005 191.523 41.9524C190.171 43.0793 188.518 43.6053 186.564 43.6053C184.01 43.6053 181.906 42.8539 180.328 41.3513C178.676 39.8487 177.849 37.745 177.849 35.0402H164.701C164.701 40.9005 166.579 45.4084 170.336 48.7142C174.092 52.02 179.277 53.6729 185.813 53.6729C190.096 53.6729 193.852 53.0719 197.008 51.7946C200.163 50.5925 202.643 48.7894 204.371 46.5354C206.099 44.2814 207 41.5767 207 38.4963Z" fill="url(#paint16_radial_2924_121700)"/>
<path d="M207 38.4963C207 31.8847 203.093 27.6773 195.28 25.7239C198.435 24.9725 200.915 23.6202 202.868 21.7419C204.821 19.8636 205.798 17.3842 205.798 14.3038C205.798 9.94615 203.995 6.56521 200.539 4.01073C197.083 1.45624 192.124 0.179001 185.813 0.179001C179.802 0.179001 174.994 1.68164 171.463 4.68692C167.857 7.6922 166.053 11.8245 166.053 17.0086H178.901C178.976 14.9049 179.727 13.252 181.08 12.0498C182.432 10.8477 184.235 10.2467 186.339 10.2467C188.142 10.2467 189.645 10.6975 190.772 11.5991C191.899 12.5006 192.5 13.853 192.5 15.581C192.5 17.3842 191.824 18.8117 190.546 19.8636C189.194 20.9154 187.391 21.4413 184.987 21.4413H180.103V31.8095H185.738C188.292 31.8095 190.171 32.3355 191.523 33.3122C192.875 34.2889 193.552 35.6413 193.552 37.3693C193.552 39.3227 192.875 40.9005 191.523 41.9524C190.171 43.0793 188.518 43.6053 186.564 43.6053C184.01 43.6053 181.906 42.8539 180.328 41.3513C178.676 39.8487 177.849 37.745 177.849 35.0402H164.701C164.701 40.9005 166.579 45.4084 170.336 48.7142C174.092 52.02 179.277 53.6729 185.813 53.6729C190.096 53.6729 193.852 53.0719 197.008 51.7946C200.163 50.5925 202.643 48.7894 204.371 46.5354C206.099 44.2814 207 41.5767 207 38.4963Z" fill="url(#paint17_radial_2924_121700)"/>
<path d="M207 38.4963C207 31.8847 203.093 27.6773 195.28 25.7239C198.435 24.9725 200.915 23.6202 202.868 21.7419C204.821 19.8636 205.798 17.3842 205.798 14.3038C205.798 9.94615 203.995 6.56521 200.539 4.01073C197.083 1.45624 192.124 0.179001 185.813 0.179001C179.802 0.179001 174.994 1.68164 171.463 4.68692C167.857 7.6922 166.053 11.8245 166.053 17.0086H178.901C178.976 14.9049 179.727 13.252 181.08 12.0498C182.432 10.8477 184.235 10.2467 186.339 10.2467C188.142 10.2467 189.645 10.6975 190.772 11.5991C191.899 12.5006 192.5 13.853 192.5 15.581C192.5 17.3842 191.824 18.8117 190.546 19.8636C189.194 20.9154 187.391 21.4413 184.987 21.4413H180.103V31.8095H185.738C188.292 31.8095 190.171 32.3355 191.523 33.3122C192.875 34.2889 193.552 35.6413 193.552 37.3693C193.552 39.3227 192.875 40.9005 191.523 41.9524C190.171 43.0793 188.518 43.6053 186.564 43.6053C184.01 43.6053 181.906 42.8539 180.328 41.3513C178.676 39.8487 177.849 37.745 177.849 35.0402H164.701C164.701 40.9005 166.579 45.4084 170.336 48.7142C174.092 52.02 179.277 53.6729 185.813 53.6729C190.096 53.6729 193.852 53.0719 197.008 51.7946C200.163 50.5925 202.643 48.7894 204.371 46.5354C206.099 44.2814 207 41.5767 207 38.4963Z" fill="url(#paint18_radial_2924_121700)"/>
<path d="M207 38.4963C207 31.8847 203.093 27.6773 195.28 25.7239C198.435 24.9725 200.915 23.6202 202.868 21.7419C204.821 19.8636 205.798 17.3842 205.798 14.3038C205.798 9.94615 203.995 6.56521 200.539 4.01073C197.083 1.45624 192.124 0.179001 185.813 0.179001C179.802 0.179001 174.994 1.68164 171.463 4.68692C167.857 7.6922 166.053 11.8245 166.053 17.0086H178.901C178.976 14.9049 179.727 13.252 181.08 12.0498C182.432 10.8477 184.235 10.2467 186.339 10.2467C188.142 10.2467 189.645 10.6975 190.772 11.5991C191.899 12.5006 192.5 13.853 192.5 15.581C192.5 17.3842 191.824 18.8117 190.546 19.8636C189.194 20.9154 187.391 21.4413 184.987 21.4413H180.103V31.8095H185.738C188.292 31.8095 190.171 32.3355 191.523 33.3122C192.875 34.2889 193.552 35.6413 193.552 37.3693C193.552 39.3227 192.875 40.9005 191.523 41.9524C190.171 43.0793 188.518 43.6053 186.564 43.6053C184.01 43.6053 181.906 42.8539 180.328 41.3513C178.676 39.8487 177.849 37.745 177.849 35.0402H164.701C164.701 40.9005 166.579 45.4084 170.336 48.7142C174.092 52.02 179.277 53.6729 185.813 53.6729C190.096 53.6729 193.852 53.0719 197.008 51.7946C200.163 50.5925 202.643 48.7894 204.371 46.5354C206.099 44.2814 207 41.5767 207 38.4963Z" fill="url(#paint19_linear_2924_121700)" fill-opacity="0.4"/>
<path d="M207 38.4963C207 31.8847 203.093 27.6773 195.28 25.7239C198.435 24.9725 200.915 23.6202 202.868 21.7419C204.821 19.8636 205.798 17.3842 205.798 14.3038C205.798 9.94615 203.995 6.56521 200.539 4.01073C197.083 1.45624 192.124 0.179001 185.813 0.179001C179.802 0.179001 174.994 1.68164 171.463 4.68692C167.857 7.6922 166.053 11.8245 166.053 17.0086H178.901C178.976 14.9049 179.727 13.252 181.08 12.0498C182.432 10.8477 184.235 10.2467 186.339 10.2467C188.142 10.2467 189.645 10.6975 190.772 11.5991C191.899 12.5006 192.5 13.853 192.5 15.581C192.5 17.3842 191.824 18.8117 190.546 19.8636C189.194 20.9154 187.391 21.4413 184.987 21.4413H180.103V31.8095H185.738C188.292 31.8095 190.171 32.3355 191.523 33.3122C192.875 34.2889 193.552 35.6413 193.552 37.3693C193.552 39.3227 192.875 40.9005 191.523 41.9524C190.171 43.0793 188.518 43.6053 186.564 43.6053C184.01 43.6053 181.906 42.8539 180.328 41.3513C178.676 39.8487 177.849 37.745 177.849 35.0402H164.701C164.701 40.9005 166.579 45.4084 170.336 48.7142C174.092 52.02 179.277 53.6729 185.813 53.6729C190.096 53.6729 193.852 53.0719 197.008 51.7946C200.163 50.5925 202.643 48.7894 204.371 46.5354C206.099 44.2814 207 41.5767 207 38.4963Z" fill="white" fill-opacity="0.6"/>
<defs>
<linearGradient id="paint0_linear_2924_121700" x1="74.3168" y1="-6.52157" x2="85.0955" y2="67.9477" gradientUnits="userSpaceOnUse">
<stop offset="0.119792" stop-color="#F3A63B"/>
<stop offset="0.7094" stop-color="#676BEF" stop-opacity="0"/>
<stop offset="1" stop-color="#484EEC" stop-opacity="0"/>
</linearGradient>
<radialGradient id="paint1_radial_2924_121700" cx="0" cy="0" r="1" gradientUnits="userSpaceOnUse" gradientTransform="translate(166.551 0.697199) rotate(147.126) scale(74.0959 86.7402)">
<stop offset="0.0304956" stop-color="#60D285"/>
<stop offset="1" stop-color="#EA88BC"/>
</radialGradient>
<radialGradient id="paint2_radial_2924_121700" cx="0" cy="0" r="1" gradientUnits="userSpaceOnUse" gradientTransform="translate(160.261 19.1107) rotate(161.616) scale(103.543 55.0768)">
<stop stop-color="#4950FF"/>
<stop offset="1" stop-color="#60D285" stop-opacity="0"/>
</radialGradient>
<radialGradient id="paint3_radial_2924_121700" cx="0" cy="0" r="1" gradientUnits="userSpaceOnUse" gradientTransform="translate(2.97171 19.1107) rotate(13.1524) scale(59.5727 56.1794)">
<stop stop-color="#F3A63B"/>
<stop offset="1" stop-color="#80DB9D" stop-opacity="0"/>
</radialGradient>
<linearGradient id="paint4_linear_2924_121700" x1="39.2789" y1="-9.95908" x2="81.0914" y2="67.3207" gradientUnits="userSpaceOnUse">
<stop stop-color="white"/>
<stop offset="1" stop-color="white" stop-opacity="0"/>
</linearGradient>
<linearGradient id="paint5_linear_2924_121700" x1="74.3168" y1="-6.52157" x2="85.0955" y2="67.9477" gradientUnits="userSpaceOnUse">
<stop offset="0.119792" stop-color="#F3A63B"/>
<stop offset="0.7094" stop-color="#676BEF" stop-opacity="0"/>
<stop offset="1" stop-color="#484EEC" stop-opacity="0"/>
</linearGradient>
<radialGradient id="paint6_radial_2924_121700" cx="0" cy="0" r="1" gradientUnits="userSpaceOnUse" gradientTransform="translate(166.551 0.697199) rotate(147.126) scale(74.0959 86.7402)">
<stop offset="0.0304956" stop-color="#60D285"/>
<stop offset="1" stop-color="#EA88BC"/>
</radialGradient>
<radialGradient id="paint7_radial_2924_121700" cx="0" cy="0" r="1" gradientUnits="userSpaceOnUse" gradientTransform="translate(160.261 19.1107) rotate(161.616) scale(103.543 55.0768)">
<stop stop-color="#4950FF"/>
<stop offset="1" stop-color="#60D285" stop-opacity="0"/>
</radialGradient>
<radialGradient id="paint8_radial_2924_121700" cx="0" cy="0" r="1" gradientUnits="userSpaceOnUse" gradientTransform="translate(2.97171 19.1107) rotate(13.1524) scale(59.5727 56.1794)">
<stop stop-color="#F3A63B"/>
<stop offset="1" stop-color="#80DB9D" stop-opacity="0"/>
</radialGradient>
<linearGradient id="paint9_linear_2924_121700" x1="39.2789" y1="-9.95908" x2="81.0914" y2="67.3207" gradientUnits="userSpaceOnUse">
<stop stop-color="white"/>
<stop offset="1" stop-color="white" stop-opacity="0"/>
</linearGradient>
<linearGradient id="paint10_linear_2924_121700" x1="74.3168" y1="-6.52157" x2="85.0955" y2="67.9477" gradientUnits="userSpaceOnUse">
<stop offset="0.119792" stop-color="#F3A63B"/>
<stop offset="0.7094" stop-color="#676BEF" stop-opacity="0"/>
<stop offset="1" stop-color="#484EEC" stop-opacity="0"/>
</linearGradient>
<radialGradient id="paint11_radial_2924_121700" cx="0" cy="0" r="1" gradientUnits="userSpaceOnUse" gradientTransform="translate(166.551 0.697199) rotate(147.126) scale(74.0959 86.7402)">
<stop offset="0.0304956" stop-color="#60D285"/>
<stop offset="1" stop-color="#EA88BC"/>
</radialGradient>
<radialGradient id="paint12_radial_2924_121700" cx="0" cy="0" r="1" gradientUnits="userSpaceOnUse" gradientTransform="translate(160.261 19.1107) rotate(161.616) scale(103.543 55.0768)">
<stop stop-color="#4950FF"/>
<stop offset="1" stop-color="#60D285" stop-opacity="0"/>
</radialGradient>
<radialGradient id="paint13_radial_2924_121700" cx="0" cy="0" r="1" gradientUnits="userSpaceOnUse" gradientTransform="translate(2.97171 19.1107) rotate(13.1524) scale(59.5727 56.1794)">
<stop stop-color="#F3A63B"/>
<stop offset="1" stop-color="#80DB9D" stop-opacity="0"/>
</radialGradient>
<linearGradient id="paint14_linear_2924_121700" x1="39.2789" y1="-9.95908" x2="81.0914" y2="67.3207" gradientUnits="userSpaceOnUse">
<stop stop-color="white"/>
<stop offset="1" stop-color="white" stop-opacity="0"/>
</linearGradient>
<linearGradient id="paint15_linear_2924_121700" x1="74.3168" y1="-6.52157" x2="85.0955" y2="67.9477" gradientUnits="userSpaceOnUse">
<stop offset="0.119792" stop-color="#F3A63B"/>
<stop offset="0.7094" stop-color="#676BEF" stop-opacity="0"/>
<stop offset="1" stop-color="#484EEC" stop-opacity="0"/>
</linearGradient>
<radialGradient id="paint16_radial_2924_121700" cx="0" cy="0" r="1" gradientUnits="userSpaceOnUse" gradientTransform="translate(166.551 0.697199) rotate(147.126) scale(74.0959 86.7402)">
<stop offset="0.0304956" stop-color="#60D285"/>
<stop offset="1" stop-color="#EA88BC"/>
</radialGradient>
<radialGradient id="paint17_radial_2924_121700" cx="0" cy="0" r="1" gradientUnits="userSpaceOnUse" gradientTransform="translate(160.261 19.1107) rotate(161.616) scale(103.543 55.0768)">
<stop stop-color="#4950FF"/>
<stop offset="1" stop-color="#60D285" stop-opacity="0"/>
</radialGradient>
<radialGradient id="paint18_radial_2924_121700" cx="0" cy="0" r="1" gradientUnits="userSpaceOnUse" gradientTransform="translate(2.97171 19.1107) rotate(13.1524) scale(59.5727 56.1794)">
<stop stop-color="#F3A63B"/>
<stop offset="1" stop-color="#80DB9D" stop-opacity="0"/>
</radialGradient>
<linearGradient id="paint19_linear_2924_121700" x1="39.2789" y1="-9.95908" x2="81.0914" y2="67.3207" gradientUnits="userSpaceOnUse">
<stop stop-color="white"/>
<stop offset="1" stop-color="white" stop-opacity="0"/>
</linearGradient>
</defs>
</svg>
